<svg width="34" height="22" viewBox="0 0 34 22" fill="none" xmlns="http://www.w3.org/2000/svg">
<path d="M30.587 3.14545H21.7645V0.953325H30.587V3.14545ZM17.1016 12.13C17.6698 13.0127 17.9551 14.0855 17.9551 15.3399C17.9551 16.6417 17.6342 17.8064 16.9816 18.836C16.5668 19.5177 16.0503 20.0936 15.4313 20.556C14.7333 21.0919 13.9079 21.4614 12.9593 21.6591C12.0064 21.8568 10.9768 21.9529 9.86724 21.9529H0V0.046875H10.5792C13.2456 0.0890104 15.1363 0.861492 16.2524 2.38053C16.9222 3.31075 17.2539 4.42679 17.2539 5.72435C17.2539 7.06512 16.9168 8.13579 16.2416 8.94932C15.8656 9.40633 15.3103 9.82228 14.5734 10.1961C15.6895 10.6056 16.5354 11.2462 17.1016 12.13ZM5.05192 8.68355H9.68789C10.6408 8.68355 11.4111 8.50096 12.0032 8.14011C12.5963 7.77818 12.8923 7.13534 12.8923 6.21268C12.8923 5.19495 12.5012 4.51863 11.7158 4.19343C11.0405 3.96655 10.1773 3.84986 9.13041 3.84986H5.05192V8.68355ZM13.3385 15.0265C13.3385 13.8889 12.8729 13.1034 11.9448 12.6799C11.4262 12.4412 10.6937 12.3169 9.75488 12.3083H5.05192V18.1456H9.68033C10.6322 18.1456 11.3679 18.0225 11.8995 17.761C12.8578 17.2856 13.3385 16.377 13.3385 15.0265ZM33.8596 11.4634C33.9676 12.1808 34.0162 13.2201 33.9946 14.5793H22.5705C22.6343 16.1566 23.1777 17.2586 24.2116 17.8896C24.8329 18.285 25.5881 18.4784 26.4729 18.4784C27.4053 18.4784 28.1648 18.2429 28.7493 17.7589C29.068 17.5017 29.3489 17.1387 29.5909 16.6828H33.7796C33.6683 17.613 33.1659 18.5562 32.2584 19.5188C30.855 21.0422 28.8865 21.8103 26.3584 21.8103C24.2678 21.8103 22.4279 21.1621 20.83 19.8775C19.2364 18.5897 18.4369 16.4948 18.4369 13.5929C18.4369 10.8713 19.1565 8.78618 20.5977 7.33737C22.0433 5.88424 23.9091 5.16146 26.2104 5.16146C27.5738 5.16146 28.8033 5.40455 29.901 5.89397C30.9943 6.38555 31.8976 7.15695 32.6085 8.2179C33.2513 9.15244 33.6662 10.2328 33.8596 11.4634ZM29.7357 11.8729C29.6611 10.7828 29.296 9.95733 28.6391 9.39336C27.9876 8.82616 27.1762 8.54309 26.2082 8.54309C25.1516 8.54309 24.3402 8.8456 23.7589 9.44198C23.1766 10.0394 22.8147 10.8476 22.6656 11.8729H29.7357Z" fill="black"/>
</svg>
