<svg width="38" height="38" viewBox="0 0 38 38" fill="none" xmlns="http://www.w3.org/2000/svg">
<ellipse cx="18.9993" cy="18.9998" rx="15.8333" ry="15.8333" fill="black"/>
<path d="M18.9996 0.600098C8.85401 0.600098 0.599609 8.8537 0.599609 19.0001C0.599609 29.1465 8.85401 37.4001 18.9996 37.4001C29.146 37.4001 37.3996 29.1465 37.3996 19.0001C37.3996 8.8537 29.146 0.600098 18.9996 0.600098ZM24.5996 11.8001H21.9676C20.4172 11.8001 19.7996 12.1641 19.7996 13.2449V15.8001H24.5996L23.7996 19.8001H19.7996V30.2001H14.9996V19.8001H12.5996V15.8001H14.9996V13.5809C14.9996 10.2009 16.3484 7.8001 20.2644 7.8001C22.362 7.8001 24.5996 8.6001 24.5996 8.6001V11.8001Z" fill="white"/>
</svg>
