<svg width="370" height="38" viewBox="0 0 370 38" fill="none" xmlns="http://www.w3.org/2000/svg">
<path d="M89.5416 0.121094H87.1113V36.9568H89.5416V0.121094Z" fill="black"/>
<path d="M140.843 27.9112L142.556 28.6955C139.395 33.8676 133.818 37.2581 127.114 37.2581C116.608 37.2581 108.941 28.9017 108.941 18.6706C108.941 8.43956 116.608 0.0898438 127.114 0.0898438C133.818 0.0898438 139.389 3.48025 142.556 8.65228L140.843 9.43673C138.057 4.89625 133.122 1.91801 127.121 1.91801C117.686 1.91801 110.983 9.4367 110.928 18.6772C110.983 27.9178 117.68 35.4364 127.121 35.4364C133.122 35.4232 138.057 32.4515 140.843 27.9112Z" fill="black"/>
<path d="M185.118 18.7131C185.118 28.9441 177.398 37.3005 166.892 37.3005C156.44 37.3005 148.719 28.9507 148.719 18.7131C148.719 8.42879 156.44 0.0791016 166.892 0.0791016C177.398 0.0791016 185.118 8.42879 185.118 18.7131ZM183.085 18.7131C183.085 9.41933 176.381 1.90061 166.892 1.90061C157.457 1.90061 150.753 9.41933 150.753 18.7131C150.753 27.9536 157.457 35.5255 166.892 35.5255C176.381 35.5255 183.085 27.9536 183.085 18.7131Z" fill="black"/>
<path d="M229.93 0.391602V36.9348H228.053V3.84184L212.188 27.3353H210.952L195.031 3.84184V36.9348H193.154V0.391602H194.868L211.539 25.0817L228.21 0.391602H229.93Z" fill="black"/>
<path d="M266.066 11.5668C266.066 18.2479 260.863 22.742 253.838 22.742H242.206V36.9417H240.383V0.398445H253.838C260.7 0.391797 266.066 4.83255 266.066 11.5668ZM264.079 11.5668C264.079 5.72336 259.683 2.21994 253.838 2.21994H242.206V20.9071H253.838C259.524 20.9071 264.079 17.4103 264.079 11.5668Z" fill="black"/>
<path d="M292.004 25.3477H274.527L269.92 36.9348H267.934L282.406 0.391602H284.119L298.593 36.9348H296.606L292.004 25.3477ZM291.308 23.5727L283.266 3.31668L275.224 23.5727H291.308Z" fill="black"/>
<path d="M334.408 0.391602V36.9348H332.694L307.715 3.62914V36.9348H305.838V0.391602H307.551L332.531 33.8038V0.391602H334.408Z" fill="black"/>
<path d="M355.95 24.7694V36.9348H354.127V24.8225L340.031 0.391602H342.175L355.043 22.6819L367.856 0.391602H369.999L355.95 24.7694Z" fill="black"/>
<path d="M21.4563 36.849C27.8188 24.6037 34.1814 12.3517 40.5439 0.106348C39.9159 0.0997001 39.2809 0.086419 38.6529 0.079771L20.4733 34.9545L2.25281 0C1.50187 0.0332393 0.750938 0.0664543 0 0.0996934C6.49904 12.345 12.9912 24.5971 19.4903 36.8424C20.1388 36.849 20.801 36.849 21.4563 36.849Z" fill="black"/>
<path d="M46.1481 0.166016C39.7856 12.4114 33.4231 24.6633 27.0605 36.9087C27.6886 36.9154 28.3235 36.9287 28.9516 36.9353L47.1379 2.05398L65.3584 37.0084C66.1093 36.9751 66.8603 36.9419 67.6112 36.9087C61.1122 24.6633 54.62 12.4114 48.1209 0.166016C47.4656 0.166016 46.8035 0.166016 46.1481 0.166016Z" fill="black"/>
</svg>
