<svg width="31" height="31" viewBox="0 0 31 31" fill="none" xmlns="http://www.w3.org/2000/svg">
<path fill-rule="evenodd" clip-rule="evenodd" d="M31 15.671V15.4997V15.329C24.1365 15.1213 20.9979 14.9501 18.4946 12.5051C16.0503 10.0023 15.8784 6.86381 15.6713 0H15.5H15.3287C15.1216 6.86381 14.9497 10.0023 12.5053 12.5051C10.002 14.9501 6.86341 15.1213 0 15.329V15.4997V15.671C6.86341 15.8786 10.002 16.0499 12.5053 18.4943C14.9497 20.9977 15.1216 24.1362 15.3287 31H15.5H15.6713C15.8784 24.1362 16.0503 20.9977 18.4946 18.4943C20.9979 16.0499 24.1365 15.8786 31 15.671Z" fill="black"/>
</svg>
